<svg width="334" height="61" viewBox="0 0 334 61" fill="none" xmlns="http://www.w3.org/2000/svg">
<path d="M78 21.4578C73.9429 22.732 71 26.5223 71 31C71 35.4776 73.9429 39.2679 78 40.5422M84 21.4578C86.0173 22.0914 87.7591 23.347 89.0007 24.9999M84 40.5422C86.0173 39.9086 87.7591 38.6529 89.0007 37" stroke="white" stroke-width="4" stroke-linecap="round"/>
<path d="M131 21.4578C126.943 22.732 124 26.5223 124 31C124 35.4776 126.943 39.2679 131 40.5422" stroke="white" stroke-width="4" stroke-linecap="round"/>
<path d="M137 21.4578C141.057 22.732 144 26.5223 144 31C144 35.4776 141.057 39.2679 137 40.5422" stroke="white" stroke-width="4" stroke-linecap="round"/>
<path d="M233 21.4578C228.943 22.732 226 26.5223 226 31C226 35.4776 228.943 39.2679 233 40.5422M239 21.4578C241.017 22.0914 242.759 23.347 244.001 24.9999M239 40.5422C241.017 39.9086 242.759 38.6529 244.001 37" stroke="white" stroke-width="4" stroke-linecap="round"/>
<path d="M99 21V41" stroke="white" stroke-width="4" stroke-linecap="round"/>
<path d="M305 21V41" stroke="white" stroke-width="4" stroke-linecap="round"/>
<path d="M254 21V41" stroke="white" stroke-width="4" stroke-linecap="round"/>
<path d="M268 21V41" stroke="white" stroke-width="4" stroke-linecap="round"/>
<path d="M268 31H260" stroke="white" stroke-width="4" stroke-linecap="round"/>
<path d="M106 21H108.5C111.538 21 114 23.4624 114 26.5V26.5C114 29.5376 111.538 32 108.5 32H106L114 41" stroke="white" stroke-width="4" stroke-linecap="round" stroke-linejoin="round"/>
<path d="M171 21L175.5 31M180 41L188 21" stroke="white" stroke-width="4" stroke-linecap="round" stroke-linejoin="round"/>
<path d="M154 21L158.5 31M163 41L171 21" stroke="white" stroke-width="4" stroke-linecap="round" stroke-linejoin="round"/>
<path d="M278 41L287 21L295 41M292.5 36L287 36" stroke="white" stroke-width="4" stroke-linecap="round" stroke-linejoin="round"/>
<path d="M198 21V41M205 21H206C211.523 21 216 25.4772 216 31V31C216 36.5228 211.523 41 206 41H205" stroke="white" stroke-width="4" stroke-linecap="round" stroke-linejoin="round"/>
<path d="M315 21L326 35M332 41V21" stroke="white" stroke-width="4" stroke-linecap="round" stroke-linejoin="round"/>
<path d="M315 41V21" stroke="white" stroke-width="4" stroke-linecap="round" stroke-linejoin="round"/>
<path fill-rule="evenodd" clip-rule="evenodd" d="M61 30.5C61 47.3447 47.3447 61 30.5 61C13.6553 61 0 47.3447 0 30.5C0 13.6553 13.6553 0 30.5 0C47.3447 0 61 13.6553 61 30.5ZM51.3943 39.163C49.654 43.2324 46.7332 46.6888 43.0012 49.0952C39.2692 51.5017 34.8935 52.7501 30.4275 52.6828C25.9615 52.6154 21.6056 51.2352 17.9106 48.7166C14.2157 46.1981 11.3475 42.6544 9.66879 38.5334C9.45323 38.0022 9.45823 37.4094 9.68268 36.8853C9.90713 36.3611 10.3327 35.9484 10.8659 35.7378C11.3991 35.5272 11.9963 35.5359 12.5265 35.762C13.0566 35.9881 13.4763 36.4132 13.6933 36.9438C15.2797 40.8379 18.173 44.0761 21.8803 46.1064C25.5876 48.1368 29.8795 48.8338 34.0247 48.0787C38.17 47.3235 41.9121 45.163 44.6134 41.9651C47.3148 38.7672 48.8082 34.73 48.8393 30.5412C48.8704 26.3523 47.4372 22.2712 44.7839 18.9931C42.1306 15.7149 38.4214 13.4427 34.2883 12.5634C30.1552 11.6842 25.8538 12.2523 22.1172 14.1711C18.3806 16.0899 15.4399 19.2406 13.7962 23.0863C13.6856 23.3468 13.5241 23.5828 13.3211 23.7805C13.118 23.9783 12.8773 24.1341 12.6128 24.2389C12.3482 24.3438 12.0651 24.3956 11.7795 24.3915C11.4939 24.3874 11.2115 24.3274 10.9484 24.215C10.6854 24.1025 10.4469 23.9399 10.2465 23.7363C10.0462 23.5327 9.888 23.2922 9.78098 23.0286C9.67395 22.7649 9.62021 22.4833 9.62284 22.1998C9.62546 21.9164 9.6844 21.6367 9.79627 21.3767C10.9502 18.6723 12.6315 16.2242 14.7441 14.1724C16.8567 12.1206 19.3591 10.5053 22.1084 9.41874C24.8577 8.33222 27.7999 7.79579 30.767 7.84012C33.734 7.88445 36.6677 8.50866 39.4003 9.67708C42.133 10.8455 44.6111 12.5352 46.693 14.6497C48.7748 16.7642 50.4197 19.2619 51.5336 22.0002C52.6474 24.7386 53.2084 27.6637 53.1845 30.6086C53.1606 33.5535 52.5523 36.4603 51.3943 39.163ZM25.6476 18.4069C23.4473 19.4279 21.5809 21.062 20.2671 23.1175C18.9394 25.1854 18.2408 27.6014 18.2577 30.0664C18.2577 32.695 18.9272 35.0892 20.3176 37.1958C21.6655 39.2549 23.5687 40.8808 25.8019 41.8811C26.9093 42.3235 28.1708 41.8811 28.6343 40.7621C28.8544 40.2369 28.8617 39.6454 28.6546 39.1149C28.4476 38.5844 28.0427 38.1572 27.5272 37.9253C26.0348 37.2443 24.7678 36.1435 23.8775 34.7544C22.9872 33.3654 22.5112 31.7467 22.5062 30.0916C22.5062 26.6571 24.5661 23.6641 27.5274 22.2587L27.5467 22.2499C28.0517 22.0172 28.4446 21.5913 28.639 21.0658C28.8333 20.5404 28.8132 19.9584 28.583 19.4479C28.0421 18.3281 26.8834 17.8603 25.6476 18.4069ZM36.977 36.1564C36.2326 36.8805 35.3709 37.4702 34.4293 37.8998C34.429 37.8999 34.4287 37.9 34.4284 37.9V37.9C34.428 37.9 34.4277 37.9 34.4274 37.9002C34.4186 37.904 34.4097 37.9079 34.4009 37.9118C34.3925 37.9156 34.3842 37.9194 34.3758 37.9233C34.1255 38.0397 33.9003 38.2047 33.7131 38.4091C33.5259 38.6134 33.3804 38.853 33.2848 39.1142C33.1892 39.3754 33.1454 39.653 33.156 39.9313C33.1666 40.2096 33.2313 40.4831 33.3464 40.7361L33.3592 40.7657C33.5902 41.2881 34.017 41.6963 34.5457 41.9007C35.0745 42.105 35.6619 42.0886 36.1788 41.8552C37.595 41.2064 38.8854 40.3076 39.9894 39.2008C40.0076 39.1831 40.0255 39.165 40.043 39.1466C40.4353 38.7357 40.6501 38.184 40.64 37.613C40.6299 37.042 40.3958 36.4985 39.9892 36.102C39.5826 35.7054 39.0368 35.4884 38.4719 35.4986C37.907 35.5088 37.3693 35.7454 36.977 36.1564ZM39.732 20.8014C38.6637 19.8061 37.4581 18.973 36.1529 18.3281C36.1448 18.3244 36.1366 18.3208 36.1284 18.3172C36.1225 18.3147 36.1166 18.3122 36.1107 18.3097C35.5958 18.1022 35.0212 18.1059 34.509 18.3201C33.9968 18.5343 33.5876 18.9421 33.3683 19.4566C33.149 19.9712 33.137 20.5519 33.3348 21.0753C33.5327 21.5986 33.9248 22.0233 34.4276 22.2589C35.3812 22.6907 36.2459 23.2998 36.9767 24.0546C37.2789 24.3457 37.6585 24.5415 38.069 24.6181C38.4795 24.6946 38.9032 24.6487 39.2883 24.4858C39.6734 24.3229 40.0033 24.0502 40.2375 23.7009C40.4717 23.3517 40.6002 22.941 40.6073 22.5191C40.6073 21.9205 40.3242 21.348 39.732 20.8014Z" fill="url(#paint0_angular_1_123)"/>
<defs>
<radialGradient id="paint0_angular_1_123" cx="0" cy="0" r="1" gradientUnits="userSpaceOnUse" gradientTransform="translate(29.5 30) rotate(-115.925) scale(40.0281 40.3918)">
<stop offset="0.146799" stop-color="#E323FF"/>
<stop offset="0.318139" stop-color="#7918F9"/>
<stop offset="0.529103" stop-color="#4DABFC"/>
<stop offset="0.644634" stop-color="#4DD7ED"/>
<stop offset="0.749036" stop-color="#FFCE20"/>
<stop offset="0.887889" stop-color="#FF970E"/>
</radialGradient>
</defs>
</svg>
