<svg width="334" height="61" viewBox="0 0 334 61" fill="none" xmlns="http://www.w3.org/2000/svg">
<g clip-path="url(#clip0_1_121)">
<path d="M10.8877 41.5613C8.6756 37.7279 7.66197 33.3177 7.97502 28.8881C8.28807 24.4585 9.91373 20.2086 12.6465 16.6756C15.3792 13.1426 19.0963 10.4852 23.3278 9.0394C27.5593 7.59359 32.1151 7.4243 36.4193 8.55292C36.9737 8.69908 37.445 9.05864 37.7298 9.55265C38.0145 10.0466 38.0895 10.6347 37.9382 11.1877C37.7869 11.7406 37.4217 12.2133 36.9228 12.5018C36.4239 12.7904 35.832 12.8712 35.2773 12.7266C31.2099 11.6601 26.8835 12.0328 23.0352 13.7813C19.1869 15.5298 16.0548 18.5458 14.1726 22.3155C12.2905 26.0852 11.7746 30.3754 12.713 34.4549C13.6514 38.5345 15.986 42.1511 19.3189 44.6885C22.6519 47.2259 26.777 48.5271 30.9915 48.3704C35.2059 48.2137 39.2489 46.6088 42.4315 43.8292C45.6142 41.0495 47.7396 37.2671 48.4456 33.1264C49.1516 28.9857 48.3946 24.7429 46.3034 21.1209C46.1613 20.8761 46.0694 20.6054 46.0329 20.3243C45.9965 20.0432 46.0162 19.7572 46.091 19.4827C46.1658 19.2081 46.2941 18.9504 46.4687 18.7244C46.6433 18.4983 46.8607 18.3084 47.1085 18.1653C47.3562 18.0223 47.6294 17.929 47.9125 17.8908C48.1955 17.8527 48.4829 17.8703 48.758 17.9428C49.0332 18.0154 49.2907 18.1413 49.516 18.3134C49.7412 18.4855 49.9297 18.7005 50.0706 18.9459C51.5423 21.4914 52.4926 24.3051 52.8671 27.2262C53.2417 30.1472 53.0332 33.1184 52.2534 35.9699C51.4737 38.8214 50.1381 41.4974 48.323 43.8448C46.5078 46.1922 44.2487 48.1652 41.6747 49.6508C39.1007 51.1365 36.2622 52.1057 33.3216 52.5032C30.381 52.9007 27.3958 52.7186 24.5367 51.9673C21.6776 51.2161 19.0005 49.9103 16.6586 48.1248C14.3166 46.3393 12.3557 44.109 10.8877 41.5613Z" fill="url(#paint0_linear_1_121)"/>
<path d="M45.3644 3.85873C49.0664 5.99406 52.2642 8.90474 54.7434 12.3956C57.2226 15.8864 58.9258 19.8768 59.7389 24.0991C59.7942 24.3787 59.794 24.6671 59.7382 24.9477C59.6824 25.2283 59.5721 25.4956 59.4137 25.7342C59.2553 25.9728 59.0518 26.178 58.815 26.3381C58.5782 26.4981 58.3128 26.6099 58.0338 26.6669C57.7549 26.724 57.468 26.7251 57.1897 26.6704C56.9113 26.6157 56.647 26.5061 56.4118 26.348C56.1767 26.1899 55.9753 25.9863 55.8193 25.749C55.6633 25.5117 55.5558 25.2454 55.5029 24.9652C54.6477 20.7187 52.7475 16.7645 49.9751 13.4629C47.2027 10.1613 43.6463 7.61716 39.6299 6.06216C35.6134 4.50716 31.2645 3.99073 26.9792 4.5599C22.6939 5.12908 18.6083 6.76577 15.0947 9.32091C11.581 11.8761 8.75091 15.2685 6.86207 19.1892C4.97322 23.1099 4.08568 27.4343 4.28027 31.7686C4.47485 36.1029 5.74539 40.3093 7.97617 44.0048C10.2069 47.7002 13.3271 50.7673 17.0524 52.9266C17.2978 53.0676 17.5128 53.256 17.6849 53.4812C17.857 53.7065 17.9829 53.964 18.0554 54.2392C18.1279 54.5143 18.1456 54.8017 18.1074 55.0847C18.0693 55.3678 17.976 55.641 17.833 55.8888C17.6899 56.1365 17.4999 56.3539 17.2739 56.5285C17.0478 56.7031 16.7902 56.8314 16.5156 56.9062C16.2411 56.981 15.9551 57.0007 15.674 56.9643C15.3928 56.9278 15.1222 56.8359 14.8774 56.6938C10.5243 54.1766 6.87996 50.5945 4.27891 46.2763C1.67786 41.9581 0.203422 37.0422 -0.00908822 31.9797C-0.239869 26.9082 0.796913 21.8477 3.00664 17.2597C5.21636 12.6718 8.52866 8.70272 12.6413 5.7146C16.7539 2.72648 21.5358 0.814509 26.5507 0.153182C31.5656 -0.508145 36.6537 0.102228 41.3508 1.9286C42.7355 2.47012 44.0771 3.11529 45.3644 3.85873Z" fill="url(#paint1_linear_1_121)"/>
<path d="M59.6413 32.9744C60.0176 33.1916 60.3186 33.519 60.5047 33.9132C60.6908 34.3075 60.7533 34.7503 60.684 35.1834C59.4251 43.1547 55.0765 50.3276 48.5926 55.1279C42.1087 59.9283 34.0191 61.9639 26.0992 60.7881C25.5339 60.7035 25.0274 60.3964 24.6909 59.9342C24.3544 59.472 24.2156 58.8926 24.3049 58.3236C24.3943 57.7545 24.7046 57.2423 25.1674 56.8997C25.6303 56.5572 26.2079 56.4122 26.7731 56.4968C33.5627 57.4903 40.4925 55.738 46.0483 51.6227C51.604 47.5074 55.3342 41.3636 56.4237 34.5337C56.4796 34.1855 56.6187 33.8553 56.8293 33.5718C57.0398 33.2882 57.3153 33.0598 57.6321 32.9063C57.9489 32.7528 58.2973 32.6788 58.6474 32.6906C58.9974 32.7025 59.3386 32.7999 59.6413 32.9744Z" fill="url(#paint2_linear_1_121)"/>
<path d="M17.9792 28.0584C18.2142 25.6303 19.1331 23.326 20.6281 21.416C21.4801 20.3671 22.7247 20.2566 23.7158 21.0078C24.153 21.3577 24.4357 21.8669 24.5016 22.4233C24.5676 22.9796 24.4114 23.5377 24.0675 23.9746C24.0631 23.9801 24.0587 23.9857 24.0543 23.9912C22.0563 26.5897 21.5832 30.1921 23.1455 33.2508C23.9027 34.7225 25.0629 35.9475 26.4876 36.7796C27.9123 37.6117 29.5413 38.0157 31.1802 37.9434C31.7447 37.9154 32.2996 38.1117 32.7253 38.49C33.151 38.8683 33.4136 39.3984 33.4565 39.9661C33.5526 41.1736 32.6304 42.1414 31.443 42.2511C28.9992 42.376 26.5648 41.7937 24.4277 40.5731C22.2313 39.3295 20.5461 37.5017 19.3505 35.1609C18.2141 32.9732 17.7374 30.5039 17.9792 28.0584ZM37.315 34.7816C37.9583 33.9706 38.4576 33.0534 38.7912 32.0698C38.9536 31.5254 39.3249 31.07 39.8233 30.804C40.3218 30.538 40.9066 30.483 41.449 30.6512C41.9915 30.8194 42.4472 31.197 42.7159 31.7009C42.9846 32.2048 43.0443 32.7937 42.8818 33.3382C42.8746 33.3625 42.8669 33.3867 42.8587 33.4108C42.379 34.8986 41.6387 36.2861 40.6725 37.508C40.3184 37.951 39.8027 38.2327 39.2388 38.2913C38.675 38.3498 38.1092 38.1804 37.6659 37.8202C37.6576 37.8134 37.6493 37.8066 37.641 37.7997C37.4234 37.6267 37.2414 37.4126 37.1054 37.1696C36.9694 36.9266 36.8821 36.6594 36.8484 36.3833C36.8148 36.1072 36.8354 35.8276 36.9092 35.5605C36.9829 35.2934 37.1084 35.044 37.2784 34.8265C37.2901 34.8115 37.302 34.7967 37.3141 34.782L37.315 34.7816ZM29.948 16.5673C31.4037 16.548 32.8564 16.7416 34.2604 17.1421C35.0364 17.3594 35.5489 17.7405 35.8212 18.2736C36.0068 18.6526 36.0792 19.0767 36.0295 19.4943C35.9797 19.9119 35.8101 20.3048 35.5412 20.625C35.2723 20.9452 34.9159 21.1789 34.5154 21.2974C34.115 21.416 33.6879 21.4142 33.2864 21.2925C32.2922 20.9527 31.2451 20.8035 30.1995 20.8527C29.6445 20.8716 29.1021 20.6718 28.6879 20.2957C28.2736 19.9196 28.0202 19.397 27.9814 18.839C27.9427 18.281 28.1217 17.7317 28.4804 17.308C28.8391 16.8843 29.3491 16.6196 29.9021 16.5702C29.9174 16.569 29.9327 16.5681 29.948 16.5673Z" fill="white"/>
</g>
<path d="M78 21.4578C73.9429 22.732 71 26.5223 71 31C71 35.4776 73.9429 39.2679 78 40.5422M84 21.4578C86.0173 22.0914 87.7591 23.347 89.0007 24.9999M84 40.5422C86.0173 39.9086 87.7591 38.6529 89.0007 37" stroke="white" stroke-width="4" stroke-linecap="round"/>
<path d="M131 21.4578C126.943 22.732 124 26.5223 124 31C124 35.4776 126.943 39.2679 131 40.5422" stroke="white" stroke-width="4" stroke-linecap="round"/>
<path d="M137 21.4578C141.057 22.732 144 26.5223 144 31C144 35.4776 141.057 39.2679 137 40.5422" stroke="white" stroke-width="4" stroke-linecap="round"/>
<path d="M233 21.4578C228.943 22.732 226 26.5223 226 31C226 35.4776 228.943 39.2679 233 40.5422M239 21.4578C241.017 22.0914 242.759 23.347 244.001 24.9999M239 40.5422C241.017 39.9086 242.759 38.6529 244.001 37" stroke="white" stroke-width="4" stroke-linecap="round"/>
<path d="M99 21V41" stroke="white" stroke-width="4" stroke-linecap="round"/>
<path d="M305 21V41" stroke="white" stroke-width="4" stroke-linecap="round"/>
<path d="M254 21V41" stroke="white" stroke-width="4" stroke-linecap="round"/>
<path d="M268 21V41" stroke="white" stroke-width="4" stroke-linecap="round"/>
<path d="M268 31H260" stroke="white" stroke-width="4" stroke-linecap="round"/>
<path d="M106 21H108.5C111.538 21 114 23.4624 114 26.5V26.5C114 29.5376 111.538 32 108.5 32H106L114 41" stroke="white" stroke-width="4" stroke-linecap="round" stroke-linejoin="round"/>
<path d="M171 21L175.5 31M180 41L188 21" stroke="white" stroke-width="4" stroke-linecap="round" stroke-linejoin="round"/>
<path d="M154 21L158.5 31M163 41L171 21" stroke="white" stroke-width="4" stroke-linecap="round" stroke-linejoin="round"/>
<path d="M278 41L287 21L295 41M292.5 36L287 36" stroke="white" stroke-width="4" stroke-linecap="round" stroke-linejoin="round"/>
<path d="M198 21V41M205 21H206C211.523 21 216 25.4772 216 31V31C216 36.5228 211.523 41 206 41H205" stroke="white" stroke-width="4" stroke-linecap="round" stroke-linejoin="round"/>
<path d="M315 21L326 35M332 41V21" stroke="white" stroke-width="4" stroke-linecap="round" stroke-linejoin="round"/>
<path d="M315 41V21" stroke="white" stroke-width="4" stroke-linecap="round" stroke-linejoin="round"/>
<defs>
<linearGradient id="paint0_linear_1_121" x1="50.0607" y1="18.9289" x2="11.8767" y2="41.0185" gradientUnits="userSpaceOnUse">
<stop stop-color="#E323FF"/>
<stop offset="1" stop-color="#7517F8"/>
</linearGradient>
<linearGradient id="paint1_linear_1_121" x1="11.862" y1="54.9529" x2="41.25" y2="4.05131" gradientUnits="userSpaceOnUse">
<stop stop-color="#4DFFDF"/>
<stop offset="1" stop-color="#4DA1FF"/>
</linearGradient>
<linearGradient id="paint2_linear_1_121" x1="32.1031" y1="66.6682" x2="61.9443" y2="14.8782" gradientUnits="userSpaceOnUse">
<stop stop-color="#FFD422"/>
<stop offset="1" stop-color="#FF7D05"/>
</linearGradient>
<clipPath id="clip0_1_121">
<rect width="61" height="61" fill="white"/>
</clipPath>
</defs>
</svg>
